<svg width="146" height="49" viewBox="0 0 146 49" fill="none" xmlns="http://www.w3.org/2000/svg">
<path fill-rule="evenodd" clip-rule="evenodd" d="M140.292 37.0384C143.901 35.808 146 33.1874 146 29.3364C146 27.439 145.342 25.7041 144.079 24.241C142.213 22.0717 139.084 20.7152 134.913 20.2807C133.489 20.1042 129.918 19.6501 129.918 17.677C129.918 15.4908 137.004 14.9135 138.865 17.4079C139.35 18.0666 139.359 18.8597 139.359 19.6305H146C146 17.548 145.642 15.6169 144.462 13.8288C143.089 11.7127 140.235 9.21826 134.527 9.21826C130.193 9.21826 127.01 10.3562 125.032 12.5816C124.099 13.6102 123.058 15.4011 123.058 18.0021C123.058 19.9556 123.716 21.6373 125.032 23.1003C125.966 24.0757 127.174 24.8913 128.655 25.4854C130.136 26.1385 132.003 26.5701 134.145 26.7887C136.011 27.0045 139.194 27.6015 139.194 29.3364C139.194 29.6615 139.084 30.2053 138.204 30.6369C136.411 31.5842 131.509 31.6487 130.301 29.6615C129.813 28.8908 129.699 27.9014 129.699 27.0045L123.058 26.898C123.058 31.5814 124.752 35.3035 129.424 36.9823C132.505 38.224 137.171 38.0642 140.292 37.0384ZM73.6306 10.373C66.0816 12.2957 61.5057 19.9136 63.4546 27.3689C65.4007 34.8242 73.1086 39.3451 80.6576 37.4224C86.6066 35.8949 89.0151 32.6717 90.7825 27.5931L83.3158 27.1503C82.2519 28.902 80.8874 30.0371 78.8703 30.5977C76.1753 31.2647 73.0036 30.2305 71.4547 27.9042L91.486 23.0022C90.5953 14.5295 82.1129 8.20927 73.6306 10.373ZM80.703 17.9572C81.5143 18.4842 82.2321 19.0896 82.7654 19.8519L70.2547 22.9461C70.3596 22.0268 70.7057 21.158 71.1313 20.3816C73.0916 17.1501 77.4093 16.099 80.703 17.9572ZM113.395 9.92455L106.261 25.5415L98.5755 9.92455H89.6307L103.353 37.8512H109.171L122.289 9.92455H113.395ZM60.7596 37.8512L60.7028 0H53.0205V13.1225C50.5496 11.1157 47.4205 9.92455 43.9623 9.92455C36.1693 9.9778 29.8572 16.2672 29.9111 23.9692C29.9679 31.6683 36.3339 37.9044 44.1268 37.8512C47.5311 37.8512 50.6602 36.604 53.0744 34.6504V37.8512H60.7596ZM49.012 28.7394C47.6956 30.0427 45.9396 30.7462 44.0729 30.8023C42.2062 30.8023 40.4502 30.096 39.1339 28.7955C37.8147 27.4922 37.1027 25.7573 37.1027 23.9131C37.0488 22.0717 37.8147 20.39 39.0771 19.0335C40.3963 17.733 42.1523 17.0267 44.019 17.0267C45.8857 17.0267 47.6417 17.733 48.9581 18.9803C50.2744 20.2807 50.9893 22.0156 51.0432 23.8598C51.0432 25.7041 50.3311 27.439 49.012 28.7394Z" fill="#1D1A2F"/>
<path fill-rule="evenodd" clip-rule="evenodd" d="M1.18582 48.667V41.604H25.9264V48.667H1.18582ZM0 24.4568C0 42.3047 27.1151 42.3047 27.1151 24.4568C27.1151 20.0088 27.1151 9.81519 27.1151 9.81519H19.9774C19.9774 14.5154 19.9774 19.2156 19.9774 23.913C19.9774 33.0108 7.1348 33.0108 7.1348 23.913C7.1348 19.2156 7.1348 14.5154 7.1348 9.81519H0C0 9.81519 0 20.0088 0 24.4568Z" fill="#1B5BF7"/>
</svg>
